<?xml version="1.0" encoding="utf-8"?>
<svg version="1.1" xmlns="http://www.w3.org/2000/svg" xmlns:xlink="http://www.w3.org/1999/xlink" x="0px" y="0px" viewBox="0 0 24 24">
  <path fill="#000000" d="M14.5,16.5 L19,12 L14.5,7.5 L13.08,8.92 L15.67,11.5 L8,11.5 L8,12.5 L15.67,12.5 L13.08,15.08 L14.5,16.5 Z M12,2 C17.52,2 22,6.48 22,12 C22,17.52 17.52,22 12,22 C6.48,22 2,17.52 2,12 C2,6.48 6.48,2 12,2 Z M12,3 C7.03,3 3,7.03 3,12 C3,16.97 7.03,21 12,21 C16.97,21 21,16.97 21,12 C21,7.03 16.97,3 12,3 Z"/>
</svg>