<?xml version="1.0" encoding="UTF-8"?>
<svg id="Calque_1" data-name="Calque 1" xmlns="http://www.w3.org/2000/svg" xmlns:xlink="http://www.w3.org/1999/xlink" viewBox="150 170 430 400">
  <defs>
    <style>



      .cls-2, .cls-4, .cls-5, .cls-6, .cls-7, .cls-8, .cls-9, .cls-10, .cls-11 {
        stroke-width: 0px;
      }

      .cls-3 {
        stroke: #f6f9fc;
        stroke-miterlimit: 10;
        stroke-width: 4px;
      }

      .cls-4 {
        fill: #000;
      }

      .cls-5, .cls-6, .cls-7, .cls-8, .cls-9, .cls-10, .cls-11 {
        fill: #000;
      }

	  .back {
	    fill: #FFF;
	  }

    </style>
  </defs>


  
  <g>
    <path class="cls-4" d="m398.6,490.06c-8.93.27-17.79,1.41-26.72,1.48-10.81,0-21.62-.27-32.36-1.21-.47-.07-.87-.07-1.34-.13-.23.01-.45-.01-.67-.07-.67-.07-1.34-.07-2.01-.13-6.51-1.14-13.02-2.28-19.47-3.42-.4-.07-.81-.2-1.21-.27-.67-.13-1.41-.27-2.08-.47-.13-.2-.38-.28-.6-.2-.67-.13-1.34-.34-2.08-.47-.47-.07-.94-.2-1.48-.27-.2-.07-.4-.07-.67-.13-.78-.55-1.74-.79-2.69-.67-5.17-1.68-10.27-3.42-15.44-5.1-1.01-.34-2.08-.74-3.09-1.07-.55-.36-1.14-.68-1.75-.94-14.09-5.45-27.5-12.52-39.95-21.08-22.69-15.71-40.82-35.52-53.51-60.16-3.02-5.84-5.57-11.88-8.33-17.86h.07c-4.63-13.96-7.92-28.2-9.13-42.83.01-.45-.01-.9-.07-1.34.13-1.41.4-2.75-.2-4.1-.6-3.56-.07-7.05.07-10.54.54-2.22.4-4.5.34-6.78l.2-2.01c.67-4.23,1.28-8.53,1.95-12.76.13-.4.27-.87.4-1.28,2.35-9.33,5.24-18.4,9.67-26.99,6-11.77,14.58-22.03,25.11-30.01,16.31-10.34,34.37-15.98,53.31-18.66,6.58-.94,13.29-1.41,20.01-1.95,6.11-.47,12.22-.13,18.19-.07,23.43.34,46.46,4.23,69.09,10.34,39.68,10.68,76.87,27.06,111.18,49.82,15.91,10.54,31.02,22.16,43.91,36.32,12.89,14.17,24.17,29.54,28.67,48.81,4.77,20.54.34,39.28-11.55,56.33-12.22,17.59-28.94,30.15-47.53,40.22-20.34,11.01-41.96,18.53-64.45,23.77-.74.2-1.48.47-2.22.74-3.96.67-7.92,1.41-11.88,2.08-6.04,1.07-12.02,2.08-18.06,3.16-.54-.06-1.07-.08-1.61-.07h0Z" mask="url(#cut-out-text)"/>
    <g>
    <mask id="cut-out-text">
      <rect class="back" x="0" y="0" width="1000" height="1000"/>
      <path class="cls-10" d="m262.44,325.77c-.94.6-1.95.4-2.95.4-17.46,0-34.91-.07-52.37.07-2.62,0-3.56-.6-3.42-3.36.51-9.94,2.6-19.74,6.2-29.02.74-1.81,1.81-2.48,3.76-2.48,16.78.07,33.57.07,50.35,0,2.35,0,3.02.34,2.42,3.02-2.28,9.8-3.09,19.81-3.49,29.88-.45.35-.65.94-.5,1.5Z"/>
      <path class="cls-5" d="m233.44,334.29c8.86,0,17.66.07,26.52-.07,1.95,0,3.02.27,3.22,2.62.64,10.13,1.98,20.2,4.03,30.15.54,2.35-1.34,1.61-2.28,1.61-9.2.07-18.33.07-27.53.07-7.52,0-14.97-.07-22.49.07-2.42.07-3.56-.87-4.3-3.16-3.1-9.43-5.28-19.15-6.51-29-.27-2.28.94-2.28,2.55-2.28,8.93.07,17.86.07,26.79,0h0Z"/>
      <path class="cls-6" d="m260.49,411.64c-5.24,0-10.54-.34-15.78.07-4.5.4-7.45-1.21-10.21-4.63-6.72-8.18-12.59-17.02-17.52-26.39-1.68-3.29-1.07-4.3,2.62-3.96,11.95,1.14,23.9.47,35.85.34,3.96,0,7.99-.2,11.95.13,1.41.13,2.35.47,2.75,1.81,3.29,10.68,7.12,21.08,12.29,31.02,1.01,2.01-1.01,1.48-1.81,1.48-6.71.13-13.43.13-20.14.13h0Z"/>
      <path class="cls-7" d="m315.82,455.08c-7.25-.67-13.76-3.29-20.21-5.91-13.16-5.24-25.71-11.75-37.13-20.14-2.89-2.08-5.64-4.36-8.39-6.65-.6-.47-1.28-1.07-1.01-1.95s1.28-.74,2.01-.74c11.82,0,23.63.07,35.52.07,1.07,0,1.54.67,2.01,1.48,5.84,10.47,13.56,19.54,21.55,28.4,1.68,1.99,3.69,3.63,5.64,5.44h0Z"/>
      <path class="cls-9" d="m218.36,283.34c16.25,0,32.43,0,48.68.07,2.01,0,2.69-.87,3.29-2.48,2.69-7.71,6.56-14.96,11.48-21.48,3.29-4.39,7.1-8.35,11.35-11.82-9.09-.68-18.22-.21-27.19,1.41-20.61,3.63-37.66,13.02-48.94,31.29-.47.74-1.34,1.48-1.01,2.35.4,1.07,1.54.67,2.35.67Zm163.89,50.35c4.02-.14,8.05.28,11.95,1.28,4.9,1.28,4.77,1.21,5.04-4.03.13-2.82-.87-3.96-3.49-4.57-7.18-1.68-14.37-2.15-21.55-.74-9.8,1.88-16.78,7.05-19.13,17.25-1.06,4.6-1.29,9.35-.67,14.03,1.61,11.88,7.39,19.07,17.39,21.55,7.86,1.95,15.71,1.68,23.57-.07,2.89-.6,3.96-1.95,3.83-5.04-.27-5.24-.07-5.24-4.9-3.83-4.65,1.29-9.51,1.66-14.3,1.07-10.37-1.07-14.97-7.12-14.97-19.07h0c.07-11.75,5.51-17.32,17.25-17.86Zm53.51-8.26c-8.39-.67-16.78-.13-25.11-.27-1.88-.07-1.81,1.07-1.81,2.42.11,8.26.04,16.52.04,24.77h.03c-.07,6.85-.07,13.63-.07,20.48q0,7.59,7.79,7.18c1.88-.07,2.62-.81,2.55-2.55-.07-1.34,0-2.69,0-4.03,0-12.08.07-24.17-.07-36.19,0-2.35.67-3.16,3.02-3.02,3.69.2,7.39-.07,11.08.13,4.03.2,6.04,2.48,6.04,6.51,0,3.29-1.68,5.71-4.36,7.45-2.28,1.42-4.81,2.4-7.45,2.89-1.41.27-1.95.74-1.61,2.22.4,1.88.74,3.76.94,5.57.13,1.07.54,1.54,1.75,1.34,6.58-1.21,12.96-3.02,17.39-8.46,4.63-5.64,4.83-12.15,2.48-18.66-2.08-5.71-7.05-7.39-12.62-7.79Zm49.68.27c-9.2-1.34-18.53-.34-27.8-.54-2.15-.07-1.68,1.28-1.68,2.82.24,7.92.11,15.84.11,23.77h-.11c0,6.71-.07,13.43,0,20.14.13,9-1.81,7.18,7.92,7.52,1.95.07,2.55-.74,2.42-2.55-.07-1.12-.07-2.24,0-3.36v-36.25c0-1.41-.4-3.02,1.95-3.02,4.23.07,8.53-.07,12.76.13,3.09.13,4.77,2.01,5.1,5.17.54,5.37-2.35,9.33-9.2,10.81-3.89.81-4.43,2.62-3.63,5.84.08.21.13.44.13.67.74,3.63,1.95,4.43,5.71,3.49,3.63-.94,6.98-2.15,10-4.63,4.03-3.29,6.85-6.98,7.65-12.15,1.54-9.33-2.89-16.65-11.35-17.86Zm-138.71,25.85c0-.54.07-2.01,0-3.42-.74-11.75-7.25-20.14-17.39-22.29-5.81-1.24-11.82-1.31-17.66-.2-8.33,1.61-14.3,6.18-16.99,14.37-2.91,8.56-2.53,17.89,1.07,26.18,2.26,5.71,7.01,10.06,12.89,11.82,6.52,2.08,13.48,2.35,20.14.81,9.6-2.15,15.44-8.12,17.25-17.79.65-3.11.87-6.3.64-9.47h.03Zm-10.43,1.01c-.07,6.31-1.07,12.35-6.98,15.98-8.12,5.04-23.57,3.49-25.51-10.74-.62-3.85-.59-7.77.07-11.61,1.34-7.05,5.98-11.55,13.02-12.29,2.21-.25,4.44-.22,6.65.07,6.51.81,10.07,5.04,11.88,11.01.87,2.42.94,5.04.87,7.59Z"/>
    </mask>
    </g>
  </g>
  
</svg>